<svg xmlns="http://www.w3.org/2000/svg" viewBox="0 0 64 64" id="BusinessAnalytics"><path d="M53.9 0H17.3c-3.4 0-6.1 2.7-6.1 6.1v24.6h6V6H54v46.4H27.2V61H54c3.4 0 6.1-2.7 6.1-6.1V6.1C60 2.7 57.3 0 53.9 0zM37.2 4H34c-.4 0-.7-.3-.7-.7 0-.4.3-.7.7-.7h3.2c.4 0 .7.3.7.7 0 .4-.3.7-.7.7zm1.2 54h-5.6c-.7 0-1.2-.5-1.2-1.2s.6-1.2 1.2-1.2h5.6c.7 0 1.2.5 1.2 1.2s-.5 1.2-1.2 1.2z" fill="#cbabc8" class="color000000 svgShape"></path><path d="M22.9 32.7H6.2c-1.2 0-2.2 1-2.2 2.2v26.9C4 63 4.9 64 6.2 64H23c1.2 0 2.2-1 2.2-2.2V34.9c-.1-1.2-1.1-2.2-2.3-2.2zm-9.3 1.1h2.2c.2 0 .3.1.3.3s-.1.3-.3.3h-2.2c-.2 0-.3-.1-.3-.3s.1-.3.3-.3zm-1.4 0c.2 0 .3.1.3.3s-.1.3-.3.3c-.2 0-.3-.1-.3-.3s.1-.3.3-.3zm2.3 29.4c-.5 0-.9-.4-.9-.9s.4-.9.9-.9.9.4.9.9-.4.9-.9.9zm8-2.7h-16V35.3h16v25.2zM48.7 10.1h-3.8v3.8h3.8c.3 0 .5-.2.5-.5v-2.7c.1-.4-.2-.6-.5-.6zM21.9 10.6v2.7c0 .3.2.5.5.5h21.3v-3.7H22.4c-.3 0-.5.2-.5.5zm2.9.5h16v1.6h-16v-1.6zM35.3 45.1h-3.1c-.3 0-.5.2-.5.5v4.1c0 .3.2.5.5.5h3.1c.3 0 .5-.2.5-.5v-4.1c0-.3-.2-.5-.5-.5zM40.5 43.3h-3.1c-.3 0-.5.2-.5.5v5.9c0 .3.2.5.5.5h3.1c.3 0 .5-.2.5-.5v-5.9c0-.3-.2-.5-.5-.5zM45.7 41.4h-3.1c-.3 0-.5.2-.5.5v7.8c0 .3.2.5.5.5h3.1c.3 0 .5-.2.5-.5v-7.8c0-.3-.2-.5-.5-.5zM50.9 39.6h-3.1c-.3 0-.5.2-.5.5v9.6c0 .3.2.5.5.5h3.1c.3 0 .5-.2.5-.5V40c0-.2-.2-.4-.5-.4zM48.7 33.8c3.5-3.6 3.4-9.3-.1-12.8-3.6-3.5-9.3-3.4-12.8.1-3.2 3.2-3.4 8.3-.8 11.8l-.8.8-.8-.8-5.4 5.4c-.3.3-.3.7 0 1l2.5 2.5c.3.3.7.3 1 0l5.4-5.4-.8-.8.8-.8c3.6 2.6 8.6 2.2 11.8-1zM37.6 22.9c2.5-2.6 6.7-2.6 9.3-.1 2.6 2.5 2.6 6.7.1 9.3-2.5 2.6-6.7 2.6-9.3.1-2.6-2.6-2.7-6.7-.1-9.3z" fill="#cbabc8" class="color000000 svgShape"></path></svg>