<svg xmlns="http://www.w3.org/2000/svg" enable-background="new 0 0 233.045 262.728" viewBox="0 0 233.045 262.728" id="leader"><path d="M128.246 55.583c.086 1.16.135 2.38.174 3.635 5.03.819 9.177 2.065 12.403 3.31.205-7.262-1.291-12.296-3.67-15.8C135.028 50.415 131.946 53.48 128.246 55.583zM116.857 94.913l7.919-25.212.52-7.897c-2.691-.33-5.617-.526-8.772-.526-2.964 0-5.664.1-8.122.268l.537 8.156L116.857 94.913z" fill="#cbabc8" class="color000000 svgShape"></path><path d="M98.243,106.575c-0.244,2.866-0.836,5.248-1.582,7.412h39.726c-0.747-2.164-1.338-4.546-1.581-7.412
		c-0.511-6.006,2.285-14.754,5.361-22.287c0.445,1.365,0.927,2.908,1.43,4.612c1.862,6.301,4.02,14.832,5.722,25.086h13.179
		c-2-12.836-4.72-23.3-6.966-30.61c-0.194-0.632-0.384-1.24-0.571-1.824c-1.898-5.954-3.347-9.419-3.518-9.82
		c-0.019-0.045-0.043-0.085-0.063-0.129c-0.697-1.543-1.924-2.685-3.374-3.303c-2.113-1.246-6.788-3.637-13.832-5.281l0.684,6.843
		h-4.687l3.071,5.495l-14.384,23.758l-14.384-23.758l3.071-5.495h-4.687l0.762-7.618c-0.741,0.105-1.449,0.215-2.124,0.33
		l-4.263-2.212L75.263,50.005L64.704,19.383L58.632,1.58c-0.414-1.215-1.747-1.87-2.962-1.455c-1.215,0.414-1.87,1.747-1.455,2.962
		l4.157,12.189c-3.662,0.827-7.75,3.15-7.052,5.173l12.5,36.25c0.543,1.576,1.672,2.883,3.151,3.65l19.97,10.359l3.901,2.023
		C94.026,81.916,98.98,97.902,98.243,106.575z" fill="#cbabc8" class="color000000 svgShape"></path><path d="M138.023 34.884c0-11.874-9.626-21.5-21.5-21.5-11.874 0-21.5 9.626-21.5 21.5 0 11.874 9.626 21.5 21.5 21.5C128.397 56.384 138.023 46.758 138.023 34.884zM103.226 41.334h26.594c-2.756 4.464-7.677 7.454-13.297 7.454C110.903 48.788 105.982 45.798 103.226 41.334zM65.267 174.99c4.551-3.68 10.337-5.89 16.632-5.89 9.488 0 17.822 5.015 22.504 12.53 3.635-1.878 7.754-2.946 12.121-2.946s8.485 1.068 12.121 2.946c4.682-7.515 13.017-12.53 22.504-12.53 6.294 0 12.079 2.209 16.63 5.888l2.809-45.5h8.404v-11.5H54.053v11.5h8.404L65.267 174.99z" fill="#cbabc8" class="color000000 svgShape"></path><path d="M71.63 215.617c3.08 1.583 6.568 2.482 10.269 2.482 3.701 0 7.19-.899 10.269-2.482-1.378-3.204-2.144-6.731-2.144-10.435 0-8.82 4.335-16.642 10.982-21.462-3.972-6.376-11.042-10.621-19.108-10.621-8.065 0-15.135 4.246-19.107 10.622 6.647 4.82 10.982 12.642 10.982 21.462C73.774 208.886 73.008 212.413 71.63 215.617zM143.024 205.183c0 3.703-.766 7.23-2.144 10.434 3.08 1.583 6.568 2.482 10.269 2.482 3.701 0 7.19-.899 10.269-2.482-1.378-3.204-2.144-6.731-2.144-10.435 0-8.82 4.335-16.642 10.982-21.462-3.972-6.376-11.042-10.621-19.108-10.621-8.065 0-15.135 4.246-19.107 10.622C138.689 188.541 143.024 196.363 143.024 205.183z" fill="#cbabc8" class="color000000 svgShape"></path><path d="M33.602 223.048h27.345c5.365-4.112 8.827-10.583 8.827-17.865 0-12.427-10.072-22.5-22.5-22.5-12.426 0-22.5 10.073-22.5 22.5C24.773 212.465 28.236 218.935 33.602 223.048zM139.023 205.183c0-12.427-10.072-22.5-22.5-22.5-12.426 0-22.5 10.073-22.5 22.5 0 7.282 3.463 13.753 8.828 17.865h27.345C135.561 218.935 139.023 212.465 139.023 205.183zM163.273 205.183c0 7.282 3.463 13.753 8.828 17.865h27.345c5.365-4.112 8.827-10.583 8.827-17.865 0-12.427-10.072-22.5-22.5-22.5C173.348 182.683 163.273 192.756 163.273 205.183zM219.483 233.317c-5.626-5.287-11.125-6.186-13.933-6.247-.153-.009-.304-.023-.459-.023h-38.635c-.165 0-.325.015-.487.025-2.814.066-8.296.974-13.906 6.245-.311.292-.613.601-.915.911-.302-.31-.604-.619-.915-.911-5.627-5.287-11.125-6.186-13.933-6.247-.153-.009-.305-.023-.459-.023H97.206c-.165 0-.325.015-.487.025-2.815.066-8.296.974-13.906 6.245-.311.292-.613.601-.915.911-.302-.31-.604-.619-.915-.911-5.627-5.287-11.125-6.186-13.933-6.247-.153-.009-.305-.023-.459-.023H27.956c-.164 0-.324.015-.486.025-2.814.065-8.295.972-13.907 6.245C7.157 239.336 2.631 249.174 0 262.728h16.374c1.127-4.91 2.467-8.704 3.854-11.588v11.588h192.592v-11.586c1.387 2.885 2.726 6.677 3.853 11.586h16.373C230.415 249.174 225.889 239.337 219.483 233.317z" fill="#cbabc8" class="color000000 svgShape"></path></svg>