<svg xmlns="http://www.w3.org/2000/svg" enable-background="new 0 0 355.766 308.088" viewBox="0 0 355.766 308.088" id="presentation"><path d="M313.037,46.208c-8.34-13.488-23.26-22.479-40.283-22.479c-1.014,0-2.018,0.043-3.016,0.106l4.683,44L313.037,46.208z" fill="#cbabc8" class="color000000 svgShape"></path><path d="M256.25,78.228c4.41,0,8.535,2.359,10.771,6.154c1.695,2.874,2.17,6.239,1.336,9.472c-0.836,3.232-2.879,5.948-5.758,7.642
		c-5.807,3.428-11.492,6.166-16.971,8.347c7.684,5.384,17.031,8.554,27.125,8.554c26.143,0,47.334-21.192,47.334-47.333
		c0-7.69-1.846-14.945-5.1-21.365L273.73,72.807c-0.305,0.171-0.643,0.257-0.979,0.257c-0.314,0-0.627-0.075-0.916-0.225
		c-0.6-0.311-1-0.894-1.07-1.564l-5.006-47.027c-22.824,3.382-40.338,23.051-40.338,46.815c0,6.43,1.287,12.557,3.609,18.146
		c7.068-2.144,14.043-5.223,20.877-9.249C251.83,78.827,254.023,78.228,256.25,78.228z" fill="#cbabc8" class="color000000 svgShape"></path><polygon points="140.77 4.001 351.766 4.001 351.766 134 220.813 134 220.813 138.001 355.766 138.001 355.766 0 136.768 0 136.768 57.396 140.77 57.396" fill="#cbabc8" class="color000000 svgShape"></polygon><path d="M152.057 245.199h1.473c.205 0 .406.009.605.021 2.506.053 6.34.589 10.674 2.777 1.055.526 2.09 1.133 3.102 1.81v-34.957c-2.24-.028-4.396-.11-6.463-.242.82 2.654 1.264 5.472 1.264 8.392C162.711 231.966 158.547 239.971 152.057 245.199zM176.459 258.099c4.045-5.446 8.338-8.462 11.693-10.122 1.062-.537 2.098-.972 3.092-1.326v-16.063c-.67-2.417-1.033-4.959-1.033-7.586 0-2.627.363-5.169 1.033-7.586v-2.462c-5.617 1.042-12.297 1.801-20 1.898v37.541C173.113 254.044 174.865 255.953 176.459 258.099zM176.418 88.582c6.826-2.299 12.34-7.972 14.094-15.502 2.691-11.563-4.498-23.117-16.059-25.811-11.563-2.691-23.117 4.5-25.811 16.061-2.537 10.893 3.699 21.778 14.1 25.253.639.213 1.291.402 1.961.558C168.734 90.078 172.764 89.812 176.418 88.582zM134.211 194.502c11.67 0 21.717 7.052 26.119 17.115 2.906.211 5.984.335 9.246.335 9.533 0 17.551-1.021 24.002-2.374 3.688-6.875 10.111-12.069 17.809-14.118L195.5 117.382l-1.254-6.164c3.076.363 6.678.621 10.744.623 14.041.01 33.553-3.112 54.566-15.514 3.09-1.822 4.117-5.807 2.295-8.899-1.82-3.092-5.807-4.121-8.898-2.296-18.801 11.074-35.797 13.7-47.963 13.71-5.83 0-10.533-.614-13.719-1.21-1.592-.3-2.805-.594-3.588-.801-.393-.104-.676-.189-.85-.24-.084-.025-.141-.043-.17-.053v.001l-.203-.068-.201-.054c-.084-.016-.795-.204-1.943-.461l3.668 3.104 1.592 8.574-5.646 1.143 3.603 6.002c0 0-12.836 22.582-16.437 27.439-.518.698-.906 1.112-1.197 1.321-.07.127-.176.186-.322.157-.146.028-.252-.03-.32-.157-.293-.21-.682-.623-1.199-1.321-3.602-4.857-16.438-27.439-16.438-27.439l3.604-6.002-5.646-1.143 1.592-8.574 3.67-3.105c-.641.143-1.146.265-1.479.348-2.201.357-10.291 2.515-18.699 12.358-9.141 10.653-18.627 29.834-23.236 64.771-.471 3.56 2.035 6.824 5.594 7.295.289.038.576.057.859.057 3.211 0 6.004-2.381 6.436-5.65 4.166-31.608 12.355-48.174 19.125-56.684l-3.873 19.032-11.75 57.757C129.871 194.761 132.012 194.502 134.211 194.502z" fill="#cbabc8" class="color000000 svgShape"></path><path d="M159.951 107.346l9.234 31.156c0 0 .191.665.391 1.518.199-.854.391-1.518.391-1.518l9.234-31.156.547-12.268c-2.879-.462-6.449-.87-10.172-.882-3.721.012-7.293.419-10.172.882L159.951 107.346zM72.211 223.002c0-12.428-10.072-22.5-22.5-22.5-12.426 0-22.5 10.072-22.5 22.5 0 11.176 8.15 20.444 18.83 22.197h7.34C64.061 243.446 72.211 234.178 72.211 223.002zM156.711 223.002c0-12.428-10.072-22.5-22.5-22.5-12.426 0-22.5 10.072-22.5 22.5 0 11.176 8.15 20.444 18.83 22.197h7.34C148.561 243.446 156.711 234.178 156.711 223.002zM22.666 275.317v32.771h54.092v-32.725c.592 1.215 1.191 2.609 1.781 4.236 2.199 6.096 4.119 15.259 4.855 28.488h17.119c.932-16.785 3.813-26.961 6.652-32.772v32.772h54.092v-32.727c.592 1.217 1.191 2.611 1.781 4.238 2.199 6.096 4.119 15.259 4.855 28.488h17.119c.932-16.785 3.813-26.961 6.652-32.772v32.772h54.092v-32.727c.592 1.217 1.191 2.611 1.781 4.238 2.199 6.096 4.119 15.259 4.856 28.488h16.018c-1.154-22.671-5.498-36.175-11.129-44.781-3.285-4.985-7.127-8.183-10.68-9.954-3.416-1.725-6.42-2.112-8.223-2.136-.117-.004-.232-.018-.351-.018h-15.205c-1.344.195-2.717.301-4.113.301-1.398 0-2.77-.105-4.113-.301h-15.203c-.135 0-.264.014-.396.02-1.807.026-4.791.421-8.184 2.133-5.006 2.479-10.371 7.708-14.363 16.751-1.139-2.559-2.369-4.811-3.668-6.797-3.285-4.985-7.127-8.183-10.68-9.954-3.416-1.725-6.42-2.112-8.223-2.136-.117-.004-.232-.018-.351-.018h-38.635c-.135 0-.264.014-.397.02-1.807.026-4.791.421-8.184 2.133-5.006 2.479-10.371 7.708-14.363 16.751-1.139-2.559-2.369-4.811-3.668-6.797-3.285-4.985-7.127-8.183-10.68-9.954-3.416-1.725-6.42-2.112-8.223-2.136-.117-.004-.232-.018-.351-.018H30.394c-.135 0-.266.014-.398.02-1.807.026-4.789.422-8.182 2.133-5.381 2.665-11.178 8.5-15.236 18.841C3.254 280.592.816 292.026 0 308.088h16.014C16.945 291.304 19.826 281.128 22.666 275.317z" fill="#cbabc8" class="color000000 svgShape"></path><circle cx="218.711" cy="223.002" r="22.5" fill="#cbabc8" class="color000000 svgShape"></circle><rect width="23" height="4" x="197.254" y="26.396" fill="#cbabc8" class="color000000 svgShape"></rect><rect width="23" height="4" x="318.504" y="15.646" fill="#cbabc8" class="color000000 svgShape"></rect><rect width="23" height="4" x="318.504" y="112.646" fill="#cbabc8" class="color000000 svgShape"></rect><rect width="23" height="4" x="318.504" y="122.146" fill="#cbabc8" class="color000000 svgShape"></rect><polygon points="227.254 49.061 227.254 47.062 215.568 47.062 209.168 32.656 207.342 33.468 207.34 33.468 214.268 49.061" fill="#cbabc8" class="color000000 svgShape"></polygon><polygon points="323.435 31.894 309.254 31.896 309.254 33.895 324.572 33.895 331.113 22.908 329.396 21.883 329.395 21.883" fill="#cbabc8" class="color000000 svgShape"></polygon></svg>