<svg xmlns="http://www.w3.org/2000/svg" enable-background="new 0 0 66 66" viewBox="0 0 66 66" id="emotionalintelligence"><path d="M51.5 30.6c-1.6.3-2.8 1.8-2.7 3.4 0 .4.4.7.7.7 0 0 0 0 0 0 .4 0 .7-.4.7-.8 0-.9.6-1.7 1.5-1.9.4-.1.7-.5.6-.9C52.3 30.8 51.9 30.5 51.5 30.6zM59.6 26.1c-.1.4.2.8.6.9 0 0 .1 0 .1 0 .4 0 .7-.3.7-.6.2-1.2 0-2.4-.6-3.4-.2-.4-.7-.5-1-.3-.4.2-.5.7-.3 1C59.6 24.4 59.8 25.2 59.6 26.1zM56.7 17c.2.1.4.4.4.7-.1.4.2.8.6.9 0 0 .1 0 .1 0 .4 0 .7-.3.7-.6.1-.9-.4-1.9-1.2-2.2-.4-.2-.8 0-1 .4C56.2 16.4 56.4 16.9 56.7 17zM54.5 45.4c.1 0 .2 0 .3-.1 1.2-.5 2.1-1.7 2.2-3 .1-.4-.2-.8-.6-.8-.4-.1-.8.2-.9.6-.1.8-.7 1.5-1.4 1.8-.4.2-.5.6-.4 1C53.9 45.3 54.2 45.4 54.5 45.4zM32.4 11.1c-.3-.3-.7-.5-1-.8-2.9-2.4-6.3-5.2-11-5.2C9.7 5.2 1 13.8 1 24.4c0 19.8 29.3 35.6 30.5 36.3.1.1.2.1.4.1.1 0 .3 0 .4-.1.2-.1.4-.4.4-.6V11.7C32.6 11.5 32.5 11.3 32.4 11.1zM8.5 35.9C8.4 36 8.2 36 8.1 36c-.3 0-.5-.1-.6-.4-.9-1.5-1.5-2.8-2-4.1-.2-.4 0-.8.4-1 .4-.1.8 0 1 .4.5 1.2 1.1 2.5 1.9 3.9C9 35.2 8.8 35.7 8.5 35.9zM23.1 9.4C23 9.8 22.6 10 22.2 9.9c-.8-.2-1.7-.3-2.6-.2-.5 0-.9 0-1.3.1-.2 0-.3 0-.4.1-.3.1-.6.1-.9.2-1.8.4-3.5 1.1-5 2.2-3 2-5.2 5.2-6 8.7-.1.3-.4.6-.7.6-.1 0-.1 0-.2 0-.4-.1-.6-.5-.6-.9.9-3.9 3.4-7.3 6.7-9.6 1.7-1.1 3.5-1.9 5.4-2.4.3-.1.7-.2 1-.2.1 0 .3 0 .4-.1.5-.1 1-.1 1.5-.1 1-.1 2.1 0 3.1.2C22.9 8.6 23.2 9 23.1 9.4z" fill="#cbabc8" class="color000000 svgShape"></path><path d="M65,25.3c0-2.4-1.4-4.6-3.6-5.5c0.4-0.8,0.6-1.6,0.6-2.5c0-3.1-2.6-5.7-5.7-5.7c-0.5,0-1.1,0.1-1.6,0.2c0-0.2,0-0.4,0-0.6
		c0-3.3-2.7-6-6-6c-2.2,0-4.3,1.2-5.3,3.2c-0.8-0.4-1.6-0.6-2.5-0.6c-3,0-5.4,2.4-5.4,5.4v41.2c0,3.6,2.9,6.5,6.5,6.5
		c2.3,0,4.4-1.2,5.6-3.2c3.5,0.1,6.4-2.9,6.4-6.4c0-0.3,0-0.7-0.1-1H54c4.2,0,7.6-3.4,7.6-7.6c0-1.1-0.2-2.1-0.7-3.1
		c2.2-1.3,3.6-3.6,3.6-6.2c0-1.4-0.4-2.7-1.2-3.9C64.4,28.3,65,26.8,65,25.3z M60,38.3c-1.4-1.4-3.6-1.8-5.4-0.9
		c-0.4,0.2-0.8,0.5-1.2,0.8c-0.5,0.4-1,0.8-1.6,0.9c-0.5,0.1-1.2-0.1-2-0.7c-0.2-0.1-0.4-0.3-0.6-0.4c-0.5-0.4-1.1-0.8-1.8-1.1
		c-1.2-0.5-2.5-0.3-3.3,0.5c-0.3,0.3-0.3,0.8,0,1.1c0.3,0.3,0.8,0.3,1.1,0c0.4-0.4,1.2-0.4,1.7-0.2c0.1,0.1,0.3,0.1,0.4,0.2
		c-0.7,0.4-1.3,1-1.6,1.8c-0.1,0.4,0.1,0.8,0.5,0.9c0.1,0,0.1,0,0.2,0c0.3,0,0.6-0.2,0.7-0.5c0.2-0.7,1-1.2,1.7-1.2c0,0,0.1,0,0.1,0
		c0,0,0,0,0,0c0.9,0.6,1.8,0.9,2.6,0.9c0.1,0,0.3,0,0.4,0c0.9-0.1,1.6-0.7,2.3-1.2c0.3-0.3,0.7-0.5,1-0.7c1.3-0.7,3.2-0.2,4,1.1
		c0,0.1,0.1,0.1,0.2,0.2c0.4,0.8,0.6,1.7,0.6,2.6c0,3.4-2.7,6.1-6.1,6.1c-0.1,0-0.3,0-0.4,0c-0.5-1.3-0.9-2.4-2-3.3
		c-0.3-0.3-0.8-0.2-1.1,0.1c-0.3,0.3-0.2,0.8,0.1,1.1c0.8,0.7,1.2,1.7,1.6,2.9c0,0.1,0,0.1,0,0.2c0.2,0.6,0.3,1.1,0.3,1.6
		c0,2.5-2,4.6-4.4,4.8l0.2-1.8c0.1-0.4-0.2-0.8-0.6-0.9c-0.4,0-0.8,0.2-0.8,0.6l-0.4,2.4c-0.4,0.9-1.1,1.6-1.9,2.1
		c-0.8,0.5-1.7,0.8-2.7,0.8c-2.8,0-5-2.3-5-5v-2.1c0.1-0.5,0.7-1.2,1.3-1.3c0.5-0.1,1.1,0,1.7,0c0.3,0,0.6,0.1,0.9,0.1
		c1.5,0.1,2.6-0.5,3.1-1.4c0.1-0.2,0.2-0.5,0.2-0.7c0.9,0.2,1.7,0.4,2.6,0.4c0.6,0,1.3-0.1,1.9-0.2c0.4-0.1,0.7-0.5,0.6-0.9
		c-0.1-0.4-0.5-0.7-0.9-0.6c-1.3,0.3-2.7,0.2-4-0.2c0.2-0.8,0.9-1.5,1.7-1.6c0.4-0.1,0.7-0.5,0.6-0.9c-0.1-0.4-0.4-0.7-0.9-0.6
		c-1.5,0.2-2.7,1.4-3,2.9c0,0.3-0.1,0.5-0.1,0.8c0,0.4-0.1,0.7-0.2,1c-0.3,0.5-1.1,0.7-1.8,0.6c-0.3,0-0.6,0-0.8-0.1
		c-0.7-0.1-1.4-0.2-2.1,0c-0.3,0.1-0.7,0.2-0.9,0.4v-6.2c0.1,0,0.2,0,0.4-0.1c0.2,0,0.5,0,0.7-0.1c1.6-0.4,2.8-1.8,3.1-3.4
		c0.1-0.4-0.2-0.8-0.6-0.9c-0.4-0.1-0.8,0.2-0.9,0.6c-0.2,1-1,1.9-2,2.2c-0.2,0-0.3,0.1-0.5,0.1c-0.1,0-0.2,0-0.3,0v-6.6
		c0.1-0.1,0.3-0.3,0.7-0.4c0.3-0.1,0.6-0.1,0.9-0.1c0.1,0,0.3,0,0.4,0c1.5-0.2,3-1,4-2c0.4,0.2,0.8,0.3,1.2,0.3c0.2,0,0.3,0,0.4,0
		c0.8-0.1,1.6-0.7,2-1.4c0.2-0.4,0.1-0.8-0.3-1c-0.4-0.2-0.8-0.1-1,0.3c-0.2,0.3-0.5,0.6-0.9,0.6c-0.1,0-0.3,0-0.5,0
		c0.5-0.8,0.8-1.6,0.9-2.5c0.1-0.4-0.2-0.8-0.6-0.8c-0.4-0.1-0.8,0.2-0.8,0.6c-0.1,0.9-0.5,1.7-1,2.4c0,0,0,0-0.1,0.1
		c0,0,0,0.1-0.1,0.1c-0.9,1.1-2.1,1.8-3.4,2c-0.1,0-0.3,0-0.4,0c-0.4,0-0.8,0.1-1.2,0.2c-0.1,0-0.2,0-0.3,0.1v-6.8
		c0.1-0.2,0.3-0.4,0.4-0.6c0.2-0.4,0.2-0.4,0.3-0.4c0.3-0.1,0.7,0,1.1,0c0.2,0,0.5,0,0.7,0.1c1.2,0,2.4-0.4,3.3-1.2
		c0.4,0.4,1,0.6,1.6,0.5c0.2,0,0.3-0.1,0.5-0.1c0.2,0,0.4-0.1,0.5-0.1c0.2,0,0.5,0.2,0.8,0.6c0.1,0.2,0.2,0.3,0.3,0.5
		c0.2,0.3,0.4,0.6,0.7,0.9c0.5,0.5,1.1,0.8,1.8,0.8c0.1,0,0.3,0,0.4-0.1c0.4-0.1,0.6-0.5,0.5-0.9c-0.1-0.4-0.5-0.6-0.9-0.5
		c-0.2,0.1-0.5-0.1-0.7-0.3c-0.2-0.2-0.3-0.4-0.5-0.7c-0.1-0.2-0.2-0.4-0.4-0.6c-0.5-0.7-1.2-1.1-1.9-1.2c-0.4,0-0.7,0.1-1,0.1
		c-0.1,0-0.2,0.1-0.3,0.1c-0.1,0-0.2,0-0.2,0c0,0-0.1-0.1-0.1-0.1c0.6-1,0.8-2.1,0.7-3.2c-0.1-0.4-0.4-0.7-0.8-0.6
		c-0.4,0.1-0.7,0.4-0.6,0.9c0.1,1-0.2,2-0.8,2.7c-0.6,0.7-1.6,1.2-2.6,1.1c-0.2,0-0.4,0-0.6,0c-0.5-0.1-1-0.1-1.6,0
		c-0.2,0-0.3,0.1-0.4,0.1v-7c1.2-0.4,2.2-1.1,3.1-2c0.3-0.3,0.3-0.8,0-1.1c-0.3-0.3-0.8-0.3-1.1,0c-0.6,0.6-1.3,1.1-2,1.4v-2.8
		c0-2.1,1.7-3.9,3.9-3.9c0.8,0,1.6,0.3,2.3,0.8c0.5,0.6,0.7,1.4,0.7,2.1c0,0,0,0,0,0v0c0,1.6-0.9,3.2-2.3,4.1
		c-0.4,0.2-0.4,0.7-0.2,1c0.1,0.2,0.4,0.3,0.6,0.3c0.1,0,0.3,0,0.4-0.1c1-0.7,1.9-1.7,2.4-2.8c0.1,0.4,0.3,0.8,0.5,1.1
		c0.2,0.4,0.7,0.5,1,0.3c0.4-0.2,0.5-0.7,0.3-1c-0.2-0.4-0.4-0.9-0.6-1.5c-0.2-0.5-0.4-1.1-0.6-1.6c0-0.9-0.3-1.8-0.8-2.6
		c0.7-1.6,2.3-2.7,4.1-2.7c2.5,0,4.5,2,4.5,4.5c0,0.5-0.1,1.1-0.3,1.6c-0.1,0.2-0.1,0.4,0,0.6c0.1,0.8,0,1.5-0.1,2.2
		c-0.1,0.5-0.5,1.1-1,1.2c0,0-0.1,0-0.1,0c-0.2,0-0.3,0-0.5,0c-0.2,0-0.5,0-0.8,0c-0.9,0.2-1.7,0.9-2.1,2c-0.3,0.8-0.3,1.7-0.3,2.4
		c0,0.4,0.3,0.7,0.8,0.7h0c0.4,0,0.7-0.3,0.7-0.8c0-0.7,0-1.4,0.2-1.9c0.2-0.5,0.6-0.9,0.9-1c0.1,0,0.3,0,0.5,0c0.1,0,0.2,0,0.3,0
		c0.6,1,0.8,2.3,0.5,3.5c-0.1,0.4,0.2,0.8,0.6,0.9c0.1,0,0.1,0,0.2,0c0.3,0,0.7-0.2,0.7-0.6c0.3-1.4,0.1-3-0.5-4.3
		c0.7-0.5,1.1-1.3,1.2-2c0.1-0.7,0.3-1.5,0.2-2.4c0.6-0.3,1.2-0.4,1.8-0.4c2.3,0,4.2,1.9,4.2,4.2c0,0.8-0.2,1.6-0.7,2.3
		c-0.7,0.6-1.6,1-2.7,1c-0.4,0-0.8,0.4-0.7,0.8c0,0.4,0.3,0.7,0.8,0.7c0,0,0,0,0,0c1.3,0,2.5-0.4,3.4-1.1c1.8,0.6,3.1,2.4,3.1,4.3
		c0,1.3-0.6,2.6-1.6,3.4c0,0,0,0,0,0.1c-0.9,0.7-2.1,1-3.2,0.7c-0.7-0.4-1.3-1-1.3-1.8c0-0.4-0.3-0.8-0.7-0.8
		c-0.4-0.1-0.8,0.3-0.8,0.7c0,0.9,0.4,1.8,1.1,2.5c-0.6,0.4-1.1,1-1.4,1.7c-0.2,0.4,0,0.8,0.4,1c0.1,0,0.2,0.1,0.3,0.1
		c0.3,0,0.6-0.2,0.7-0.5c0.2-0.5,0.8-1.1,1.4-1.4c0.4,0.1,0.7,0.1,1,0.1c0.9,0,1.9-0.3,2.6-0.8c0.5,0.9,0.8,1.9,0.8,2.9
		C63.1,35.4,61.9,37.3,60,38.3z" fill="#cbabc8" class="color000000 svgShape"></path></svg>