<svg xmlns="http://www.w3.org/2000/svg" data-name="Layer 1" viewBox="0 0 64 64" id="Skills"><path fill="#cbabc8" d="M27 7H10.25A3.26 3.26 0 0 0 7 10.25V27h7v-1a3 3 0 0 1 6 0v1h7v-7h1a3 3 0 0 0 0-6h-1Z" class="colorf49898 svgShape"></path><path fill="#db7fd2" d="M57 27V10.25A3.26 3.26 0 0 0 53.75 7H37v7h1a3 3 0 0 1 0 6h-1v7h7v1a3 3 0 0 0 6 0v-1Z" class="color7fdb8a svgShape"></path><path fill="#f7baf1" d="M37 57h16.75A3.26 3.26 0 0 0 57 53.75V37h-7v1a3 3 0 0 1-6 0v-1h-7v7h-1a3 3 0 0 0 0 6h1Z" class="colorbad9f7 svgShape"></path><path fill="#f28ce8" d="M7 37v16.75A3.26 3.26 0 0 0 10.25 57H27v-7h-1a3 3 0 0 1 0-6h1v-7h-7v-1a3 3 0 0 0-6 0v1Z" class="colorf2ea8c svgShape"></path></svg>