<svg xmlns="http://www.w3.org/2000/svg" enable-background="new 0 0 512 512" viewBox="0 0 512 512" id="Bank"><path d="M193.1 160.2c1.6-1.3 2.3-3.2 2.3-5.7s-.8-4.5-2.3-6c-1.5-1.5-3.7-2.3-6.5-2.4h-11.5v16.1h11.3c3 0 5.2-.7 6.7-2z" fill="#27aea8" class="color000000 svgShape"></path><path d="M41.6 201h428.8c3.5 0 6.3-2.8 6.3-6.3v-23.3c0-2-.9-3.9-2.5-5.1L259.7 7.2c-2.2-1.7-5.3-1.7-7.5 0L37.9 166.4c-1.6 1.2-2.5 3.1-2.5 5.1v23.3c-.1 3.4 2.7 6.2 6.2 6.2zm264.2-82.2h8.3V140h3.3l16.2-21.2h9.8l.1.2-18.8 23.5 20.3 26.3h-10.5l-16.3-21.6h-4.1v21.6h-8.3v-50zm-49.5 0h8.3l22.1 36 .2-.1v-36h8.3v50H287l-22.1-36-.2.1v36h-8.3v-50zm-31.4 0h7.9l17.2 50h-8.6l-3.8-11.7H220l-3.8 11.7h-8.6l17.3-50zm-58 0h16.4c5.5 0 9.8 1.1 12.9 3.4 3.1 2.3 4.7 5.7 4.7 10.2 0 2.2-.6 4.2-1.9 5.9-1.2 1.8-3 3.1-5.2 4 3.2.5 5.7 1.9 7.4 4.2 1.7 2.2 2.6 4.9 2.6 7.9 0 4.7-1.5 8.3-4.6 10.7-3.1 2.4-7.3 3.7-12.7 3.7h-19.6v-50z" fill="#27aea8" class="color000000 svgShape"></path><path d="M190.3 138c1.5-1.2 2.2-3 2.2-5.2 0-2.5-.8-4.3-2.4-5.5s-3.9-1.8-6.9-1.8h-8v14.4h8.9c2.6 0 4.7-.6 6.2-1.9zM229 130.5h-.2l-6.5 19.7h13.1zM482.6 477.4H29.4c-3.5 0-6.3 2.8-6.3 6.3v16c0 3.5 2.8 6.3 6.3 6.3h453.2c3.5 0 6.3-2.8 6.3-6.3v-16c0-3.5-2.8-6.3-6.3-6.3zM45.5 443.1v16c0 3.5 2.8 6.3 6.3 6.3h408.4c3.5 0 6.3-2.8 6.3-6.3v-16c0-3.5-2.8-6.3-6.3-6.3H51.8c-3.5 0-6.3 2.8-6.3 6.3zM381.4 404.4c-1.8 0-3.3 1.5-3.3 3.3v9.5c0 1.8 1.5 3.3 3.3 3.3h56.8c1.8 0 3.3-1.5 3.3-3.3v-9.5c0-1.8-1.5-3.3-3.3-3.3h-5.6V235.6h5.6c1.8 0 3.3-1.5 3.3-3.3v-9.5c0-1.8-1.5-3.3-3.3-3.3h-56.8c-1.8 0-3.3 1.5-3.3 3.3v9.5c0 1.8 1.5 3.3 3.3 3.3h5.6v168.9h-5.6zM278.9 404.4c-1.8 0-3.3 1.5-3.3 3.3v9.5c0 1.8 1.5 3.3 3.3 3.3h56.8c1.8 0 3.3-1.5 3.3-3.3v-9.5c0-1.8-1.5-3.3-3.3-3.3h-5.6V235.6h5.6c1.8 0 3.3-1.5 3.3-3.3v-9.5c0-1.8-1.5-3.3-3.3-3.3h-56.8c-1.8 0-3.3 1.5-3.3 3.3v9.5c0 1.8 1.5 3.3 3.3 3.3h5.6v168.9h-5.6zM176.3 404.4c-1.8 0-3.3 1.5-3.3 3.3v9.5c0 1.8 1.5 3.3 3.3 3.3h56.8c1.8 0 3.3-1.5 3.3-3.3v-9.5c0-1.8-1.5-3.3-3.3-3.3h-5.6V235.6h5.6c1.8 0 3.3-1.5 3.3-3.3v-9.5c0-1.8-1.5-3.3-3.3-3.3h-56.8c-1.8 0-3.3 1.5-3.3 3.3v9.5c0 1.8 1.5 3.3 3.3 3.3h5.6v168.9h-5.6zM73.7 404.4c-1.8 0-3.3 1.5-3.3 3.3v9.5c0 1.8 1.5 3.3 3.3 3.3h56.8c1.8 0 3.3-1.5 3.3-3.3v-9.5c0-1.8-1.5-3.3-3.3-3.3h-5.6V235.6h5.6c1.8 0 3.3-1.5 3.3-3.3v-9.5c0-1.8-1.5-3.3-3.3-3.3H73.7c-1.8 0-3.3 1.5-3.3 3.3v9.5c0 1.8 1.5 3.3 3.3 3.3h5.6v168.9h-5.6z" fill="#27aea8" class="color000000 svgShape"></path></svg>