<svg xmlns="http://www.w3.org/2000/svg" viewBox="0 0 66 66" id="FinancialAnalysis"><path d="M57.3 16.3h-2.6c.1 1.7 0 3.4-.3 5h2.4v9.3l5 4.3V20.7c-.1-2.4-2.1-4.4-4.5-4.4zm1.2 29.8c-.6 0-1.2-.1-1.8-.3v5.7H8.5V21.3h9.3c-.3-1.6-.4-3.3-.3-5H7.9c-2.4 0-4.4 2-4.4 4.4V54c0 2.4 2 4.4 4.4 4.4h49.4c2.4 0 4.4-2 4.4-4.4v-8.9c-.9.6-2 1-3.2 1zM45.5 64c0 .5-.5 1-1 1H20.7c-.5 0-1-.5-1-1s.5-1 1-1h3.5v-2.5H41V63h3.5c.6 0 1 .4 1 1z" fill="#27aea8" class="color000000 svgShape"></path><path d="M61.3 42.9c-1.7 1.6-4.4 1.5-5.9-.3L47 32.8c.8-.6 1.6-1.2 2.3-2 .7-.7 1.4-1.5 1.9-2.3L61 37c1.9 1.5 2 4.3.3 5.9zm-13.4-37c-6.5-6.5-17.1-6.4-23.6 0-6.5 6.5-6.5 17.1 0 23.6 6.4 6.4 16.9 6.6 23.6 0 6.6-6.8 6.4-17.3 0-23.6zM36.1 29.5c-6.5 0-11.8-5.3-11.8-11.8 0-6.5 5.3-11.8 11.8-11.8s11.8 5.3 11.8 11.8c0 6.5-5.3 11.8-11.8 11.8zm-20.6 5.7h-3c-.6 0-1-.4-1-1s.4-1 1-1h3c.6 0 1 .4 1 1s-.5 1-1 1zm8.7 0h-4.8c-.6 0-1-.4-1-1s.4-1 1-1h4.8c.6 0 1 .4 1 1s-.4 1-1 1zm-1.7 5.1h-10c-.6 0-1-.4-1-1s.4-1 1-1h10c.6 0 1 .4 1 1s-.5 1-1 1zm8.7 0h-4.8c-.6 0-1-.4-1-1s.4-1 1-1h4.8c.6 0 1 .4 1 1s-.4 1-1 1zm7.1 0h-3.4c-.6 0-1-.4-1-1s.4-1 1-1h3.4c.6 0 1 .4 1 1s-.4 1-1 1zm7 5h-17c-.6 0-1-.4-1-1s.4-1 1-1h17c.6 0 1 .4 1 1s-.4 1-1 1zm-21 0h-5.8c-.6 0-1-.4-1-1s.4-1 1-1h5.8c.6 0 1 .4 1 1s-.4 1-1 1zm-9.4 0h-2.4c-.6 0-1-.4-1-1s.4-1 1-1h2.4c.6 0 1 .4 1 1s-.4 1-1 1z" fill="#27aea8" class="color000000 svgShape"></path></svg>