<svg xmlns="http://www.w3.org/2000/svg" viewBox="0 0 48 48" id="Mindset"><path d="M26.11,2A17.98,17.98,0,0,0,8.222,19.747L4.145,26.482A1,1,0,0,0,5,28H8v9a1,1,0,0,0,1,1h3.382L14,41.236V45a1,1,0,0,0,1,1H35a1,1,0,0,0,.949-1.316L34.094,39.12l2.763-4.6A.971.971,0,0,0,36.9,34.4,18.051,18.051,0,0,0,26.11,2ZM35,18a1,1,0,0,1,1,1v4a1,1,0,0,1-1,1H33v1a1,1,0,0,1-2,0V24H29a1,1,0,0,1,0-2h5V20H29a1,1,0,0,1-1-1V15a1,1,0,0,1,1-1h2V13a1,1,0,0,1,2,0v1h2a1,1,0,0,1,0,2H30v2Z" fill="#27aea8" class="color000000 svgShape"></path></svg>