<svg xmlns="http://www.w3.org/2000/svg" enable-background="new 0 0 502.672 502.672" viewBox="0 0 502.672 502.672" id="LoveMoney"><g fill="#000000" class="color000000 svgShape"><g fill="#000000" class="color000000 svgShape"><g fill="#000000" class="color000000 svgShape"><path fill="#27aea8" d="M228.502,193.784c-3.214,4.422-4.853,9.383-4.853,14.69c0,4.94,1.488,9.448,4.444,13.697
				c2.955,4.206,7.42,7.593,13.46,10.16v-47.995h-0.022C236.073,186.256,231.738,189.362,228.502,193.784z" class="color010002 svgShape"></path><path fill="#27aea8" d="M421.668,34.764C338.082,4.91,279.582,62.073,251.346,100.232h-0.043
				c-28.236-38.18-86.715-95.3-170.301-65.467C-0.04,63.734-42.578,191.67,61.803,319.628
				c74.57,91.46,151.319,137.557,189.499,156.604h0.022c38.202-19.047,114.951-65.144,189.542-156.604
				C545.269,191.692,502.688,63.734,421.668,34.764z M303.978,341.458c-10.203,11.476-24.31,18.551-42.387,21.355v25.928h-20.061
				v-25.54c-16.006-1.941-29.013-7.873-38.935-17.796c-9.944-9.966-16.372-24.008-19.09-42.171l36.217-4.098
				c1.445,7.377,4.206,13.784,8.262,19.09c4.034,5.371,8.542,9.254,13.546,11.627v-58.047
				c-18.119-5.155-31.407-13.007-39.906-23.512c-8.434-10.483-12.684-23.232-12.684-38.202c0-15.164,4.789-27.934,14.366-38.202
				c9.556-10.311,22.326-16.264,38.223-17.839v-13.762h20.061v13.741c14.798,1.747,26.51,6.773,35.225,15.1
				c8.693,8.305,14.28,19.414,16.696,33.305l-35.117,4.616c-2.222-10.936-7.809-18.4-16.804-22.239v54.207
				c22.283,5.954,37.447,13.784,45.514,23.361c8.046,9.534,12.058,21.851,12.058,36.778
				C319.164,315.918,314.138,330.047,303.978,341.458z" class="color010002 svgShape"></path><path fill="#27aea8" d="M261.548,277.759v54.294c6.967-1.445,12.619-4.789,16.998-9.858
				c4.4-5.112,6.558-11.152,6.558-18.119c0-6.191-1.812-11.519-5.501-15.984C275.958,283.626,269.918,280.197,261.548,277.759z" class="color010002 svgShape"></path></g></g></g></svg>