<svg xmlns="http://www.w3.org/2000/svg" enable-background="new 0 0 67 67" viewBox="0 0 67 67" id="MoneyInvestmentStrategy"><path d="M58.5535088 29.7090168h-10.884407c.8816986 7.0323086-.6192322 14.1381588-4.4818382 21.1600246h19.8375778C59.1728058 43.8576813 57.6613693 36.7413254 58.5535088 29.7090168zM46.2836151 28.1346073h.4618301c.0105057 0 .0105057 0 .0105057 0h12.7002029c0 0 0 0 .0105095 0h1.091629c.7242317 0 1.3224487-.5982838 1.3224487-1.3225136 0-.7347374-.598217-1.3225136-1.3224487-1.3225136H46.2836151c-.7242317 0-1.3120079.5877762-1.3120079 1.3225136C44.9716072 27.5363235 45.5593834 28.1346073 46.2836151 28.1346073z" fill="#27aea8" class="color000000 svgShape"></path><rect width="20.992" height="5.112" x="42.61" y="52.443" fill="#27aea8" class="color000000 svgShape"></rect><path d="M49.5583801,23.9151707h7.7355881c-0.5982819-3.2222977-0.0209465-6.4760494,1.7213707-9.6983471
		c0.1049995-0.1784792,0.1049995-0.3988552,0-0.5668278c-0.0524673-0.094429-0.1889229-0.2413893-0.440815-0.2413893H48.2778931
		c-0.2518959,0-0.3883514,0.1469603-0.4408188,0.2413893c-0.1049995,0.1784792-0.1049995,0.3883486,0,0.5668278
		C49.5793915,17.4391212,50.156662,20.692873,49.5583801,23.9151707z" fill="#27aea8" class="color000000 svgShape"></path><rect width="24.288" height="2.918" x="40.962" y="59.129" fill="#27aea8" class="color000000 svgShape"></rect><path d="M54.4075546 8.3494987c.5143585-.3253756.8606834-.8921394.8606834-1.5533962 0-1.0181508-.8291664-1.8473163-1.8368111-1.8473163-1.0180855 0-1.8473167.8291655-1.8473167 1.8473163 0 .6612568.3463898 1.2385273.8711929 1.5533962-1.710865.3778429-3.0333786 1.7528238-3.3482475 3.4846992h8.638237C57.4304237 10.1023226 56.1079102 8.7273417 54.4075546 8.3494987zM26.3849869 28.5745277c-.1404247.0225487-.2859764.0327988-.4376774.0327988h-2.4099159c.5814342.9115505 1.2326965 2.348032 1.7713375 4.6197014.1004505.4223022-.1609268.846653-.5842533.9471054-.0604744.0143509-.1219749.0215263-.1824512.0215263-.3556767 0-.6795788-.2439537-.7646542-.6057816-.8417854-3.546711-1.9262409-4.6941395-2.2707081-4.9825516h-3.6114788c-.3448505.2885399-1.4289227 1.4366093-2.2707081 4.9825516-.0861006.3618279-.4089775.6057816-.7646542.6057816-.0604753 0-.1219759-.0071754-.1824512-.0215263-.4233274-.1004524-.6847038-.5248032-.5842533-.9471054.539217-2.2715416 1.190608-3.708086 1.7719784-4.6197014h-2.436182c-.151701 0-.2972517-.0102501-.4376774-.0317745C6.2549 33.4843025 1.75 44.4569893 1.75 51.7796326c0 9.5346031 7.4343662 10.2715797 17.9375992 10.2715797 10.5196342 0 17.9652748-.7369766 17.9652748-10.2715797C37.652874 44.45084 33.1377258 33.4761047 26.3849869 28.5745277zM19.7009239 44.4959412c2.3390636 0 4.2425003 1.9034348 4.2425003 4.2424965 0 2.0694885-1.4918957 3.7920113-3.4552956 4.1628685v1.1353874c0 .4346008-.352602.7872047-.7872047.7872047-.4346008 0-.7872028-.3526039-.7872028-.7872047v-1.1353874c-1.9633999-.3709221-3.4552946-2.09338-3.4552946-4.1628685 0-.4346008.352602-.7872047.7872038-.7872047.4346027 0 .7872047.3526039.7872047.7872047 0 1.4708862 1.1972065 2.6680908 2.6680889 2.6680908 1.4708843 0 2.6680908-1.1972046 2.6680908-2.6680908 0-1.4708824-1.1972065-2.668087-2.6680908-2.668087-2.3390617 0-4.2424974-1.9034386-4.2424974-4.2425003 0-2.0694847 1.4918947-3.7919426 3.4552946-4.1628685v-1.1353874c0-.4346008.352602-.7872009.7872028-.7872009.4346027 0 .7872047.3526001.7872047.7872009v1.1353874c1.9633999.3708611 3.4552956 2.0933838 3.4552956 4.1628685 0 .4346008-.352602.7872047-.7872047.7872047s-.7872047-.3526039-.7872047-.7872047c0-1.4708824-1.1972065-2.6680908-2.6680908-2.6680908-1.4965076 0-2.6680889 1.1715813-2.6680889 2.6680908C17.032835 43.2987328 18.2300415 44.4959412 19.7009239 44.4959412zM24.9663792 23.6760254H14.4098454 13.428915c-.9214802 0-1.6717844.7503033-1.6717844 1.6717834 0 .790535.5389605 1.4436569 1.2618465 1.6280937.0178728.0044842.036644-.0010242.0542612.0047398.1055756.0358753.2193508.0522766.3556767.0522766h12.5183945c.1363258 0 .2501011-.0164013.3556767-.0522766.0178108-.0058289.0367718-.0002556.0548382-.0048046.7226295-.1843719 1.2612686-.8356361 1.2612686-1.6147041 0-.9348049-.7503033-1.6851082-1.6717834-1.6851082H24.9663792zM24.5635509 22.1016159c1.4924088-2.1473866 2.7562408-5.4786549 3.4091702-7.3790159-1.4944592.5053282-3.7638206 1.3109827-5.0133038 1.9423857-.2060261.1014748-.4448509.1107006-.6580524.0235748-.2121773-.08815-.3751526-.2654762-.445879-.4838028-.4264011-1.317132-1.4678078-3.1621418-2.1576366-4.3132238-.6929035 1.1521063-1.7394333 3.0001917-2.1791611 4.319375-.0727768.2173004-.2367764.3925762-.4489536.479702-.210125.0860996-.4520264.0778999-.656004-.0276756-1.2351313-.6293526-3.5085936-1.4350071-5.0061274-1.9403353.6570292 1.9003611 1.9270115 5.2326536 3.4071198 7.3790159H24.5635509z" fill="#27aea8" class="color000000 svgShape"></path></svg>