<svg xmlns="http://www.w3.org/2000/svg" viewBox="0 0 66 66" id="Investment"><path d="M52.035 19.573a1.451 1.451 0 0 0 0-2.9h-8.458v-2h7.498c.8 0 1.44-.65 1.44-1.44 0-.8-.64-1.45-1.44-1.45h-15.06v-.04l-1.22-5.83h-1.12c-.1 0-.19.05-.25.12l-6.49 8.09c-.44.55-1.1.87-1.81.87h-.87l-.01 12.19h1.38l5.15 2.18h18.37a1.451 1.451 0 0 0 0-2.9h-5.568v-2h7.498c.8 0 1.44-.65 1.44-1.44 0-.8-.64-1.45-1.44-1.45h-7.498v-2h8.458zm-46.51-6.34 6.9 15.99h9.82v-15.99H5.525zm11.84 13.265a1.78 1.78 0 0 1 0-3.56c.984 0 1.776.8 1.776 1.776a1.78 1.78 0 0 1-1.776 1.784z" fill="#27aea8" class="color000000 svgShape"></path><path d="M47.388 9.774h-9.674a.077.077 0 0 1-.076-.064l-1.716-8.104a.077.077 0 0 1 .076-.089h13.106c.047 0 .083.042.076.089L47.463 9.71a.077.077 0 0 1-.075.064zm1.887 21.579c-.04.01-.09.01-.13.01h-13.33c-4.43 6.5-11.18 15.4-11.18 21.1 0 .61.02 1.2.08 1.77.62 5.88 5.76 10.25 11.68 10.25h12.35c5.52 0 10.53-3.78 11.49-9.21.15-.88.24-1.83.24-2.81 0-5.71-6.64-14.61-11.2-21.11zm-6.72 15.07c2.62 0 4.76 2.14 4.76 4.77 0 2.28-1.62 4.19-3.76 4.65v1.88h-2v-1.88c-2.15-.46-3.77-2.37-3.77-4.65h2a2.765 2.765 0 1 0 2.77-2.77c-2.63 0-4.77-2.14-4.77-4.76 0-2.29 1.62-4.2 3.77-4.66v-1.88h2v1.88c2.14.46 3.76 2.37 3.76 4.66h-2c0-1.53-1.24-2.77-2.76-2.77a2.77 2.77 0 0 0-2.77 2.77c0 1.52 1.24 2.76 2.77 2.76z" fill="#27aea8" class="color000000 svgShape"></path></svg>